# Blender v2.69 (sub 0) OBJ File: 'skybox.blend'
# www.blender.org
o Cube
v 1.000000 -1.000000 -1.000000
v 1.000000 -1.000000 1.000000
v -1.000000 -1.000000 1.000000
v -1.000000 -1.000000 -1.000000
v 1.000000 1.000000 -0.999999
v 0.999999 1.000000 1.000001
v -1.000000 1.000000 1.000000
v -1.000000 1.000000 -1.000000
vt 0.000000 0.000000
vt 0.500000 0.000000
vt 0.000000 0.500000
vt 0.5000000 0.500000
vn 0.000000 1.000000 0.000000
vn 0.000000 -1.000000 0.000000
vn -1.000000 0.000000 0.000000
vn 0.000000 0.000000 -1.000000
vn 1.000000 0.000000 0.000000
vn -0.000000 -0.000000 1.000000
vn -1.000000 -0.000000 -0.000001
s off
f 1/1/1 4/2/1 2/3/1
f 5/1/2 6/2/2 8/3/2
f 1/1/3 2/2/3 5/3/3
f 2/1/4 3/2/4 6/3/4
f 3/1/5 4/2/5 7/3/5
f 5/1/6 8/2/6 1/3/6
f 4/2/1 3/4/1 2/3/1
f 6/2/2 7/4/2 8/3/2
f 2/2/7 6/4/7 5/3/7
f 3/2/4 7/4/4 6/3/4
f 4/2/5 8/4/5 7/3/5
f 8/2/6 4/4/6 1/3/6
