# Blender v2.69 (sub 0) OBJ File: 'tutoail_uv_mapping.blend'
# www.blender.org
o Cube
v 1.000000 -1.000000 -1.000000
v 1.000000 -1.000000 1.000000
v -1.000000 -1.000000 1.000000
v -1.000000 -1.000000 -1.000000
v 1.000000 1.000000 -0.999999
v 0.999999 1.000000 1.000001
v -1.000000 1.000000 1.000000
v -1.000000 1.000000 -1.000000
vt 0.500000 0.250043
vt 0.250043 0.250043
vt 0.499999 0.500000
vt 0.499999 0.999913
vt 0.499999 0.749957
vt 0.250042 0.999913
vt 0.749956 0.250043
vt 0.500000 0.000087
vt 0.250043 0.500000
vt 0.000087 0.250043
vt 0.000087 0.000087
vt 0.250043 0.000087
vt 0.250042 0.749956
vt 0.749956 0.000087
vn 0.000000 1.000000 0.000000
vn 0.000000 -1.000000 0.000000
vn -1.000000 0.000000 0.000000
vn 0.000000 0.000000 -1.000000
vn 1.000000 0.000000 0.000000
vn -0.000000 -0.000000 1.000000
vn -1.000000 -0.000000 -0.000001
s off
f 1/1/1 4/2/1 2/3/1
f 5/4/2 6/5/2 8/6/2
f 1/1/3 2/7/3 5/8/3
f 2/3/4 3/9/4 6/5/4
f 3/10/5 4/2/5 7/11/5
f 5/8/6 8/12/6 1/1/6
f 4/2/1 3/9/1 2/3/1
f 6/5/2 7/13/2 8/6/2
f 2/7/7 6/14/7 5/8/7
f 3/9/4 7/13/4 6/5/4
f 4/2/5 8/12/5 7/11/5
f 8/12/6 4/2/6 1/1/6
